<?xml version="1.0" encoding="UTF-8"?>
<!DOCTYPE svg PUBLIC "-//W3C//DTD SVG 1.1//EN" "http://www.w3.org/Graphics/SVG/1.1/DTD/svg11.dtd">
<!-- Creator: CorelDRAW -->
<svg xmlns="http://www.w3.org/2000/svg" xml:space="preserve" width="268.448mm" height="351.957mm" version="1.1" style="shape-rendering:geometricPrecision; text-rendering:geometricPrecision; image-rendering:optimizeQuality; fill-rule:evenodd; clip-rule:evenodd"
viewBox="0 0 1084.99 1422.51"
 xmlns:xlink="http://www.w3.org/1999/xlink"
 xmlns:xodm="http://www.corel.com/coreldraw/odm/2003">
 <defs>
  <style type="text/css">
   <![CDATA[
    .fil0 {fill:white}
   ]]>
  </style>
 </defs>
 <g id="Capa_x0020_1">
  <metadata id="CorelCorpID_0Corel-Layer"/>
  <path class="fil0" d="M829.76 680.48c148.65,52.21 255.23,193.77 255.23,360.25 0,210.85 -170.93,381.77 -381.77,381.77 -210.85,0 -381.77,-170.92 -381.77,-381.77 0,-8.11 0.26,-16.16 0.76,-24.14l0.03 0c7.26,-116.34 66.63,-218.55 155.04,-283.58 1.53,-1.12 2.67,-2.41 3.51,-3.84 36.87,-29.22 60.52,-74.38 60.52,-125.08 0,-88.1 -71.42,-159.52 -159.52,-159.52 -88.1,0 -159.52,71.42 -159.52,159.52l0 244.6 0 102.3 0 44.58 -0 0c-1.91,0 -3.81,-0.02 -5.71,-0.07 -1.9,-0.05 -3.79,-0.12 -5.68,-0.22 -1.89,-0.1 -3.77,-0.22 -5.64,-0.36 -1.87,-0.14 -3.74,-0.31 -5.6,-0.5 -1.86,-0.19 -3.72,-0.4 -5.57,-0.64 -1.85,-0.24 -3.69,-0.5 -5.52,-0.78 -1.83,-0.28 -3.66,-0.59 -5.48,-0.91 -1.82,-0.33 -3.63,-0.68 -5.44,-1.05 -1.8,-0.37 -3.6,-0.76 -5.39,-1.18 -1.79,-0.42 -3.57,-0.85 -5.34,-1.31l0 0c-1.77,-0.46 -3.53,-0.94 -5.29,-1.44l0 0c-1.75,-0.5 -3.5,-1.02 -5.24,-1.57 -1.74,-0.54 -3.46,-1.11 -5.18,-1.69l0 0c-1.72,-0.59 -3.43,-1.19 -5.13,-1.82l0 0c-1.7,-0.63 -3.39,-1.27 -5.07,-1.94 -1.68,-0.67 -3.35,-1.35 -5.01,-2.06 -1.66,-0.71 -3.31,-1.43 -4.95,-2.17l0 0c-1.64,-0.74 -3.27,-1.51 -4.89,-2.29 -1.62,-0.78 -3.23,-1.58 -4.82,-2.41l0 0c-3.19,-1.64 -6.34,-3.36 -9.44,-5.15l0 0c-1.55,-0.89 -3.09,-1.81 -4.62,-2.74 -1.53,-0.93 -3.04,-1.88 -4.55,-2.85 -1.5,-0.97 -2.99,-1.95 -4.47,-2.95l0 0c-2.96,-2 -5.86,-4.07 -8.72,-6.21l0 -0c-1.43,-1.07 -2.84,-2.15 -4.24,-3.26l0 0c-1.4,-1.1 -2.79,-2.22 -4.16,-3.35l0 0c-1.37,-1.14 -2.73,-2.29 -4.08,-3.45 -1.35,-1.17 -2.68,-2.35 -4,-3.55 -1.32,-1.2 -2.62,-2.41 -3.91,-3.64 -1.29,-1.23 -2.56,-2.47 -3.82,-3.73 -1.26,-1.26 -2.5,-2.53 -3.73,-3.82 -1.23,-1.29 -2.44,-2.59 -3.64,-3.91 -1.2,-1.32 -2.38,-2.65 -3.55,-4 -1.17,-1.35 -2.32,-2.71 -3.45,-4.08l0 -0c-1.13,-1.37 -2.25,-2.76 -3.36,-4.16l-0 0c-1.1,-1.4 -2.19,-2.82 -3.26,-4.24l-0 0c-2.14,-2.85 -4.21,-5.76 -6.21,-8.72l0 0c-1,-1.48 -1.98,-2.97 -2.95,-4.47 -0.97,-1.5 -1.91,-3.02 -2.85,-4.55 -0.93,-1.53 -1.84,-3.07 -2.74,-4.62l0 0c-1.79,-3.1 -3.51,-6.25 -5.15,-9.44l0 0c-0.82,-1.6 -1.62,-3.21 -2.41,-4.82 -0.78,-1.62 -1.55,-3.25 -2.29,-4.89l0 -0c-0.74,-1.64 -1.47,-3.29 -2.17,-4.95 -0.71,-1.66 -1.39,-3.33 -2.06,-5.01 -0.67,-1.68 -1.31,-3.37 -1.94,-5.07l0 0c-0.63,-1.7 -1.23,-3.41 -1.82,-5.13l0 0c-0.59,-1.72 -1.15,-3.45 -1.69,-5.18 -0.54,-1.74 -1.07,-3.48 -1.57,-5.24l0 0c-0.5,-1.75 -0.98,-3.52 -1.44,-5.29l0 0c-0.46,-1.77 -0.9,-3.55 -1.31,-5.34 -0.42,-1.79 -0.81,-3.59 -1.18,-5.39 -0.37,-1.8 -0.72,-3.62 -1.05,-5.44 -0.33,-1.82 -0.63,-3.65 -0.91,-5.48 -0.28,-1.83 -0.54,-3.68 -0.78,-5.52 -0.24,-1.85 -0.45,-3.7 -0.64,-5.57 -0.19,-1.86 -0.36,-3.73 -0.5,-5.61 -0.14,-1.87 -0.26,-3.76 -0.36,-5.64 -0.1,-1.89 -0.17,-3.78 -0.22,-5.68 -0.05,-1.9 -0.07,-3.8 -0.07,-5.71l0 -60.72 0 -108.52 0 0 0 -381.84 0 0c0,-122.24 100.02,-222.25 222.25,-222.25l0 0 0 146.89 0 110.28c48.54,-22.36 102.57,-34.85 159.52,-34.85 214.29,0 380.77,172.34 380.77,381.77 0,123.57 -57.2,234.75 -148.42,304.31 -42.48,28.66 -70.42,77.24 -70.42,132.34 0,88.1 71.42,159.52 159.52,159.52 88.1,0 159.52,-71.42 159.52,-159.52 0,-75.87 -52.98,-139.37 -123.96,-155.53 46.02,-58.37 78.04,-128.3 90.98,-204.72z"/>
 </g>
</svg>
