<?xml version="1.0" encoding="UTF-8"?>
<!DOCTYPE svg PUBLIC "-//W3C//DTD SVG 1.1//EN" "http://www.w3.org/Graphics/SVG/1.1/DTD/svg11.dtd">
<!-- Creator: CorelDRAW -->
<svg xmlns="http://www.w3.org/2000/svg" xml:space="preserve" width="268.448mm" height="351.957mm" version="1.1" style="shape-rendering:geometricPrecision; text-rendering:geometricPrecision; image-rendering:optimizeQuality; fill-rule:evenodd; clip-rule:evenodd"
viewBox="0 0 2247.97 2947.26"
 xmlns:xlink="http://www.w3.org/1999/xlink"
 xmlns:xodm="http://www.corel.com/coreldraw/odm/2003">
 <defs>
  <style type="text/css">
   <![CDATA[
    .fil0 {fill:black}
   ]]>
  </style>
 </defs>
 <g id="Capa_x0020_1">
  <metadata id="CorelCorpID_0Corel-Layer"/>
  <path class="fil0" d="M1719.15 1409.88c307.98,108.17 528.81,401.46 528.81,746.4 0,436.85 -354.14,790.98 -790.98,790.98 -436.85,0 -790.99,-354.13 -790.99,-790.98 0,-16.8 0.53,-33.48 1.57,-50.02l0.06 0c15.05,-241.05 138.04,-452.82 321.22,-587.55 3.16,-2.32 5.54,-5 7.27,-7.96 76.38,-60.54 125.38,-154.12 125.38,-259.15 0,-182.53 -147.97,-330.51 -330.51,-330.51 -182.53,0 -330.5,147.97 -330.5,330.51l0 506.78 0 211.96 0 92.37 -0 0c-3.96,0 -7.9,-0.05 -11.84,-0.15 -3.93,-0.1 -7.85,-0.25 -11.77,-0.45 -3.91,-0.2 -7.81,-0.45 -11.69,-0.75 -3.88,-0.3 -7.75,-0.64 -11.61,-1.04 -3.86,-0.4 -7.7,-0.84 -11.53,-1.33 -3.83,-0.49 -7.64,-1.03 -11.45,-1.62 -3.8,-0.58 -7.59,-1.21 -11.35,-1.89 -3.77,-0.68 -7.52,-1.4 -11.26,-2.17 -3.74,-0.77 -7.46,-1.58 -11.16,-2.45 -3.7,-0.86 -7.39,-1.77 -11.06,-2.71l0 0c-3.67,-0.95 -7.32,-1.95 -10.96,-2.98l0 0c-3.64,-1.04 -7.25,-2.12 -10.85,-3.25 -3.6,-1.13 -7.18,-2.29 -10.74,-3.5l0 0c-3.56,-1.21 -7.1,-2.47 -10.62,-3.76l0 0c-3.52,-1.3 -7.02,-2.64 -10.51,-4.01 -3.48,-1.38 -6.94,-2.8 -10.38,-4.26 -3.44,-1.46 -6.86,-2.96 -10.26,-4.51l0 0c-3.4,-1.54 -6.77,-3.13 -10.13,-4.75 -3.35,-1.62 -6.68,-3.28 -9.99,-4.98l0 0c-6.62,-3.4 -13.14,-6.96 -19.57,-10.66l0 0c-3.21,-1.85 -6.4,-3.75 -9.57,-5.67 -3.17,-1.93 -6.3,-3.89 -9.42,-5.9 -3.12,-2 -6.21,-4.04 -9.27,-6.11l0 0c-6.13,-4.15 -12.15,-8.44 -18.06,-12.87l0 -0c-2.96,-2.21 -5.89,-4.46 -8.79,-6.75l0 0c-2.9,-2.28 -5.78,-4.6 -8.62,-6.95l0 0c-2.85,-2.35 -5.66,-4.74 -8.45,-7.15 -2.79,-2.42 -5.55,-4.87 -8.28,-7.35 -2.73,-2.48 -5.43,-5 -8.1,-7.54 -2.67,-2.54 -5.31,-5.12 -7.92,-7.73 -2.61,-2.61 -5.19,-5.25 -7.73,-7.92 -2.55,-2.67 -5.06,-5.37 -7.54,-8.1 -2.48,-2.73 -4.93,-5.49 -7.35,-8.28 -2.42,-2.79 -4.8,-5.6 -7.15,-8.45l0 -0c-2.35,-2.84 -4.67,-5.72 -6.95,-8.62l-0 0c-2.28,-2.9 -4.53,-5.83 -6.75,-8.79l-0 0c-4.43,-5.91 -8.72,-11.94 -12.87,-18.06l0 0c-2.08,-3.06 -4.11,-6.15 -6.11,-9.27 -2,-3.11 -3.97,-6.25 -5.9,-9.42 -1.93,-3.17 -3.82,-6.35 -5.67,-9.57l0 0c-3.71,-6.43 -7.26,-12.95 -10.66,-19.57l0 0c-1.7,-3.31 -3.36,-6.64 -4.98,-9.99 -1.62,-3.35 -3.21,-6.73 -4.75,-10.13l0 -0c-1.54,-3.39 -3.04,-6.81 -4.51,-10.26 -1.46,-3.44 -2.88,-6.9 -4.26,-10.38 -1.38,-3.48 -2.72,-6.98 -4.01,-10.51l0 0c-1.3,-3.52 -2.55,-7.06 -3.76,-10.62l0 0c-1.21,-3.56 -2.38,-7.14 -3.51,-10.74 -1.13,-3.6 -2.21,-7.22 -3.25,-10.85l0 0c-1.04,-3.64 -2.03,-7.29 -2.98,-10.96l0 0c-0.95,-3.67 -1.86,-7.36 -2.71,-11.06 -0.86,-3.71 -1.68,-7.43 -2.45,-11.16 -0.77,-3.74 -1.49,-7.49 -2.17,-11.26 -0.68,-3.77 -1.31,-7.56 -1.89,-11.36 -0.59,-3.8 -1.12,-7.62 -1.62,-11.44 -0.49,-3.83 -0.93,-7.67 -1.33,-11.53 -0.4,-3.86 -0.74,-7.73 -1.04,-11.61 -0.3,-3.88 -0.55,-7.78 -0.75,-11.69 -0.2,-3.91 -0.35,-7.83 -0.45,-11.77 -0.1,-3.93 -0.15,-7.88 -0.15,-11.84l0 -125.8 0 -224.83 0 0 0 -791.12 0 0c0,-253.26 207.22,-460.48 460.48,-460.48l0 0 0 304.33 0 228.49c100.58,-46.32 212.51,-72.2 330.5,-72.2 443.98,0 788.91,357.06 788.91,790.99 0,256.03 -118.52,486.36 -307.52,630.49 -88.02,59.38 -145.9,160.02 -145.9,274.18 0,182.53 147.97,330.51 330.51,330.51 182.53,0 330.5,-147.97 330.5,-330.51 0,-157.2 -109.76,-288.76 -256.82,-322.25 95.35,-120.94 161.68,-265.82 188.49,-424.15z"/>
 </g>
</svg>
